<?xml version="1.0" encoding="iso-8859-1"?>
<!-- Generator: Adobe Illustrator 16.0.0, SVG Export Plug-In . SVG Version: 6.00 Build 0)  -->
<!DOCTYPE svg PUBLIC "-//W3C//DTD SVG 1.1//EN" "http://www.w3.org/Graphics/SVG/1.1/DTD/svg11.dtd">
<svg version="1.1" id="Capa_1" xmlns="http://www.w3.org/2000/svg" xmlns:xlink="http://www.w3.org/1999/xlink" x="0px" y="0px"
	 width="189.236px" height="189.236px" viewBox="0 0 189.236 189.236" style="enable-background:new 0 0 189.236 189.236;"
	 xml:space="preserve">
<g>
	<g>
		<path d="M164.08,172.821c-3.541-5.96-8.49-13.344-13.908-17.845c11.9-9.497,13.744-30.463,4.575-42.429
			c0.117-0.298,0.137-0.649,0.012-1.042c-2.108-6.578-11.023-9.156-17.13-9.84c-0.768-0.086-2.063-0.203-3.456-0.207
			c-10.079-3.508-22.909,9.893-26.461,18.911c-4.82,12.236-1.409,24.286,7.071,31.814c-7.519,8.108-8.172,23.295-10.279,33.445
			c-0.402,1.938,2.18,3.998,3.668,2.136c2.227-2.788,4.622-5.257,7.285-7.556c2.645,2.686,5.21,5.41,7.562,8.374
			c0.998,1.258,3.395,0.567,3.675-0.97c0.759-4.158,1.185-8.345,1.559-12.554c0.433-4.879,1.669-10.097,1.406-14.96
			c-0.018-0.31-0.127-0.578-0.272-0.824c1.233,0.242,2.502,0.42,3.805,0.53c0.559,0.046,1.097,0.056,1.64,0.07
			c2.728,8.062,4.855,16.298,7.252,24.461c0.563,1.92,3.755,2.193,4.154,0c0.532-2.929,0.919-8.973,4.452-9.928
			c3.104-0.839,7.8,1.128,10.817,1.763C163.402,176.571,165.155,174.631,164.08,172.821z M126.265,159.183
			c-3.295,6.225-2.744,15.062-3.277,22.629c-1.886-2.095-3.846-4.113-5.845-6.121c-0.91-0.915-2.164-0.742-3.094,0
			c-1.335,1.065-2.582,2.181-3.789,3.331c0.586-3.083,1.174-6.165,1.829-9.234c1.166-5.466,3.32-10.558,4.833-15.876
			c2.843,2.075,6.142,3.687,9.801,4.719C126.548,158.771,126.39,158.946,126.265,159.183z M112.078,126.764
			c1.129-5.176,4.241-10.865,8.436-14.785c0.263,0.115,0.547,0.206,0.92,0.201c2.189-0.032,4.375-0.523,6.538-0.807
			c2.615-0.342,5.253-0.589,7.89-0.657c1.477-0.037,2.862,0.245,4.223,0.082c18.967,4.628,19.832,37.137-0.487,42.453
			C123.782,157.392,108.757,141.984,112.078,126.764z M148.342,170.528c-2.283,0.982-3.638,2.974-4.524,5.261
			c-1.852-5.399-3.902-10.723-6.194-15.963c3.354-0.252,6.343-1.144,8.974-2.518c2.446,4.753,6.56,8.769,10.09,13.06
			C153.791,169.766,150.819,169.462,148.342,170.528z"/>
		<path d="M138.204,117.018c-1.722-2.42-5.258-2.776-8.123-2.117c-4.321,0.994-7.745,5.096-9.665,8.846
			c-4.492,8.775,0.263,20.084,9.743,22.976c7.638,2.328,14.368-4.414,16.766-10.968C149.762,127.997,145.59,119.913,138.204,117.018
			z M143.298,133.349c-1.013,4.72-4.993,9.521-10.072,9.77c-7.409,0.361-11.621-9.2-10.032-15.265
			c0.896-3.423,3.35-6.417,6.324-8.244c1.531-0.941,2.948-1.214,4.396-1.197c-0.101,0.74,0.174,1.489,1.029,1.876
			C140.658,122.878,144.753,126.571,143.298,133.349z"/>
		<path d="M186.63,4.959c-0.302-1.463-1.857-2.535-3.303-2.515C125.113,3.269,66.818,4.066,8.695,0.007
			C6.746-0.128,5.399,1.669,5.28,3.422C3.56,28.853,1.867,54.279,0.877,79.75c-0.563,14.49-1.057,29.084-0.155,43.57
			c0.23,3.688,0.091,11.979,3.238,15.715c-0.364,0.745-0.267,1.691,0.628,2.109c10.695,5,27.29,2.008,38.816,1.725
			c16.254-0.399,32.388-0.256,48.45,2.521c4.883,0.844,5.542-6.358,1.281-6.581c-14.208-3.06-28.903-3.062-43.369-2.823
			c-8.302,0.137-16.598,0.52-24.896,0.8c-4.915,0.166-10.396-0.354-15.443,0.318c-0.263-0.697-0.79-1.317-1.639-1.663
			c0.89,0.363-0.221-5.457-0.36-7.249c-0.391-5.041-0.343-10.109-0.385-15.161C6.922,98.577,7.531,84.107,8.166,69.673
			C9.084,48.776,10.47,27.908,11.869,7.04c56.132,3.721,112.407,3.076,168.623,2.293c3.854,21.644,0.462,44.439,1.151,66.307
			c0.706,22.363,0.596,44.746-0.037,67.108c-2.934-0.061-5.83-0.216-8.79-0.653c-4.337-0.643-6.202,5.983-1.828,6.631
			c4.67,0.69,9.244,0.919,13.971,0.938c1.917,0.007,3.38-1.571,3.438-3.437c0.758-24.754,0.779-49.506-0.007-74.259
			C187.682,49.679,191.177,26.98,186.63,4.959z"/>
		<path d="M82.056,64.563c-2.823-10.746-3.069-21.537-3.062-32.58c0.001-1.45-1.026-2.937-2.485-3.264
			c-13.55-3.038-27.196-0.417-40.885-0.122c-1.936,0.042-3.265,1.513-3.386,3.386c-0.703,10.87-0.748,21.752-0.738,32.641
			c0.001,1.708,1.067,2.721,2.339,3.061c0.272,0.198,0.589,0.35,0.978,0.374c14.605-0.557,29.452,0.427,44.056,0.68
			C81.044,68.779,82.593,66.608,82.056,64.563z"/>
		<path d="M152.319,30.675c-8.286-0.653-17.723,1.907-26.143,2.325c-9.283,0.461-18.807-0.056-28.033,1.116
			c-3.55,0.451-3.555,5.081,0,5.526c9.184,1.149,18.815,0.438,28.033,0.097c8.11-0.301,20.371,0.65,27.625-3.585
			C156.47,34.596,155.124,30.897,152.319,30.675z"/>
		<path d="M154.766,56.326c-8.637-0.044-17.272-0.061-25.909-0.121c-8.19-0.058-17.964-1.259-25.953,0.959
			c-0.6,0.166-1.149,0.67-1.29,1.29c0.037,0.05,0.074,0.1,0.11,0.15c-0.403,0.022-0.395,0.585,0,0.62
			c-0.036,0.071-0.073,0.142-0.11,0.212c0.126,0.636,0.705,1.104,1.29,1.291c7.322,2.327,16.229,1.485,23.804,1.78
			c9.336,0.365,18.715,0.633,28.059,0.626c-0.003-0.019-0.005-0.038-0.008-0.057C158.921,62.941,159.324,56.349,154.766,56.326z"/>
		<path d="M155.482,84.039c-5.255-3.831-14.003-2.883-20.097-2.623c-9.591,0.411-19.13,1.928-28.667,2.946
			c-24.56,2.623-49.494-2.149-73.971,1.552c-1.931,0.292-1.25,3.023,0.43,3.178c23.268,2.154,47.89,4.135,71.219,2.274
			c16.976-1.354,32.61-3.682,49.555-1.674C157.284,90.086,157.612,85.591,155.482,84.039z"/>
		<path d="M63.015,120.354c-2.87-7.14-9.269-9.362-13.916-5.126c-1.058-1.771-2.191-3.494-3.067-5.402
			c-1.039-2.264-4.05-1.243-4.757,0.622c-1.117,2.946-1.819,6.03-2.711,9.04c-1.032-4.652-1.966-9.322-4.306-13.539
			c-1.138-2.049-3.917-0.944-4.097,1.11c-0.564,6.44-1.399,12.806-2.626,19.154c-0.392,2.026,2.556,2.893,3.121,0.86
			c0.971-3.499,1.697-7.04,2.338-10.601c0.823,3.896,1.407,7.863,2.64,11.658c0.667,2.053,3.47,2.55,4.62,0.604
			c2.091-3.535,3.123-7.384,4.226-11.242c0.642,1.055,1.25,2.13,1.678,3.316c0.716,1.983,3.651,2.784,4.779,0.625
			c2.924-5.6,5.453-1.777,8.448,1.03C60.84,123.829,63.878,122.5,63.015,120.354z"/>
	</g>
</g>
<g>
</g>
<g>
</g>
<g>
</g>
<g>
</g>
<g>
</g>
<g>
</g>
<g>
</g>
<g>
</g>
<g>
</g>
<g>
</g>
<g>
</g>
<g>
</g>
<g>
</g>
<g>
</g>
<g>
</g>
</svg>
